<svg id="Capa_1" data-name="Capa 1" xmlns="http://www.w3.org/2000/svg" viewBox="0 0 234 112.8">
  <defs>
    <style>
      .cls-1 {
        fill: #fff;
      }
    </style>
  </defs>
  <path class="cls-1" d="M46.2,112.8c-7.04,0-12.64-1.74-16.8-5.22-4.16-3.48-5.96-8.38-5.4-14.7l1.8-19.68c.4-4.24-.2-7.3-1.8-9.18-1.6-1.88-5-2.82-10.2-2.82H0v-9.6H13.8c5.2,0,8.6-.94,10.2-2.82,1.6-1.88,2.2-4.94,1.8-9.18l-1.8-19.68c-.56-6.32,1.24-11.22,5.4-14.7C33.56,1.74,39.16,0,46.2,0h5.4V9.6h-5.4c-3.76,0-6.68,.86-8.76,2.58-2.08,1.72-2.96,4.3-2.64,7.74l1.8,19.68c.4,4.72-.72,8.5-3.36,11.34-2.64,2.84-6.96,4.54-12.96,5.1,6,.56,10.32,2.4,12.96,5.52,2.64,3.12,3.76,7,3.36,11.64l-1.8,19.68c-.32,3.44,.56,6.02,2.64,7.74,2.08,1.72,5,2.58,8.76,2.58h5.4v9.6h-5.4Z"/>
  <path class="cls-1" d="M62.16,99.6V12h24.84c8,0,14.26,2,18.78,6,4.52,4,6.78,9.56,6.78,16.68,0,4.48-1.42,8.52-4.26,12.12-2.84,3.6-6.54,5.84-11.1,6.72v.36c3.44,.4,6.46,1.6,9.06,3.6,2.6,2,4.64,4.54,6.12,7.62,1.48,3.08,2.22,6.46,2.22,10.14,0,7.52-2.3,13.46-6.9,17.82-4.6,4.36-10.9,6.54-18.9,6.54h-26.64Zm10.56-50.28h14.16c4.64,0,8.3-1.24,10.98-3.72,2.68-2.48,4.02-5.84,4.02-10.08s-1.32-7.6-3.96-10.08c-2.64-2.48-6.28-3.72-10.92-3.72h-14.28v27.6Zm0,40.56h14.88c5.04,0,9.02-1.34,11.94-4.02,2.92-2.68,4.38-6.34,4.38-10.98s-1.46-8.7-4.38-11.7c-2.92-3-6.9-4.5-11.94-4.5h-14.88v31.2Z"/>
  <path class="cls-1" d="M117,99.6L139.8,12h14.52l22.68,87.6h-10.92l-5.76-23.28h-26.52l-5.76,23.28h-11.04Zm18.96-32.4h22.08l-6.72-27c-1.28-5.12-2.28-9.4-3-12.84-.72-3.44-1.16-5.68-1.32-6.72-.16,1.04-.6,3.28-1.32,6.72-.72,3.44-1.72,7.68-3,12.72l-6.72,27.12Z"/>
  <path class="cls-1" d="M182.4,112.8v-9.6h5.4c3.76,0,6.74-.86,8.94-2.58,2.2-1.72,3.02-4.3,2.46-7.74l-3-19.68c-.72-4.56,.08-8.42,2.4-11.58,2.32-3.16,5.52-5.1,9.6-5.82-4.08-.64-7.28-2.36-9.6-5.16-2.32-2.8-3.12-6.48-2.4-11.04l3-19.68c.56-3.44-.26-6.02-2.46-7.74-2.2-1.72-5.18-2.58-8.94-2.58h-5.4V0h5.4c4.72,0,8.86,.78,12.42,2.34,3.56,1.56,6.24,3.82,8.04,6.78,1.8,2.96,2.38,6.56,1.74,10.8l-3,19.68c-.64,4.24-.1,7.3,1.62,9.18,1.72,1.88,5.18,2.82,10.38,2.82h15v9.6h-15c-5.12,0-8.56,.94-10.32,2.82-1.76,1.88-2.32,4.94-1.68,9.18l3,19.68c.64,4.16,.06,7.74-1.74,10.74s-4.48,5.28-8.04,6.84c-3.56,1.56-7.7,2.34-12.42,2.34h-5.4Z"/>
  <text/>
</svg>